<svg height="512pt" viewBox="0 0 512 512" width="512pt" xmlns="http://www.w3.org/2000/svg"><path d="m440.058594 365.3125c-17.40625 0-33.785156-6.777344-46.09375-19.101562l-234.355469-234.339844-15.367187-107.566406 107.570312 15.367187 234.339844 234.339844c12.320312 12.320312 19.101562 28.703125 19.101562 46.109375s-6.78125 33.785156-19.101562 46.089844c-12.308594 12.324218-28.6875 19.101562-46.09375 19.101562zm0 0" fill="#e4edfb"/><path d="m159.609375 111.875 92.195313-92.195312 199.757812 199.753906-92.199219 92.199218zm0 0" fill="#e76e54"/><path d="m359.382812 311.644531-199.773437-199.773437zm0 0" fill="#e76e54"/><path d="m159.617188 111.867188 23.382812-23.382813 199.757812 199.757813-23.382812 23.382812zm0 0" fill="#dd523c"/><path d="m0 0v512h512zm97.789062 236.082031 178.128907 178.128907h-178.128907zm0 0" fill="#ffcb5a"/><g fill="#57565c"><path d="m0 186.03125h65.195312v32.597656h-65.195312zm0 0"/><path d="m0 251.222656h65.195312v32.597656h-65.195312zm0 0"/><path d="m0 316.417969h65.195312v32.597656h-65.195312zm0 0"/><path d="m0 381.613281h65.195312v32.597657h-65.195312zm0 0"/><path d="m97.789062 446.804688h32.597657v65.195312h-32.597657zm0 0"/><path d="m162.984375 446.804688h32.597656v65.195312h-32.597656zm0 0"/><path d="m228.179688 446.804688h32.597656v65.195312h-32.597656zm0 0"/><path d="m293.371094 446.804688h32.597656v65.195312h-32.597656zm0 0"/></g><path d="m151.820312 57.304688 7.789063 54.566406 23.390625-23.386719zm0 0" fill="#d7e1f2"/><path d="m382.769531 288.253906-23.386719 23.390625 34.582032 34.566407c12.308594 12.324218 28.6875 19.101562 46.09375 19.101562 5.917968 0 11.636718-1.058594 17.195312-2.574219zm0 0" fill="#d7e1f2"/></svg>