<svg id="Layer_1" enable-background="new 0 0 512 512" height="512" viewBox="0 0 512 512" width="512" xmlns="http://www.w3.org/2000/svg"><g><g><g><path d="m499.534 330.757s-12 .86-32.86 1.88c-54.08 2.61-167.67 6.19-285.85-1.88-11.2-163.56 0-318.32 0-318.32s134.82-9.73 285.85-1.96c10.88.56 21.85 1.21 32.86 1.96 11.19 163.55 0 318.32 0 318.32z" fill="#c7cde0"/><path d="m499.534 12.437c11.19 163.55 0 318.32 0 318.32s-12 .86-32.86 1.88c1.92-30.14 9.84-171.95 0-322.16 10.88.56 21.85 1.21 32.86 1.96z" fill="#b1accc"/><g fill="#fff"><ellipse cx="409.316" cy="97.443" rx="17.631" ry="17.609"/><ellipse cx="409.316" cy="245.751" rx="17.631" ry="17.609"/><ellipse cx="271.035" cy="97.443" rx="17.631" ry="17.609"/></g></g><g><path d="m331.2 499.497s-12 .86-32.86 1.88c-54.08 2.61-167.67 6.19-285.85-1.88-11.2-163.56 0-318.32 0-318.32s134.82-9.73 285.85-1.96c10.88.56 21.85 1.21 32.86 1.96 11.19 163.55 0 318.32 0 318.32z" fill="#ff7878"/><path d="m331.2 181.177c11.19 163.55 0 318.32 0 318.32s-12 .86-32.86 1.88c1.92-30.14 9.84-171.95 0-322.16 10.88.56 21.85 1.21 32.86 1.96z" fill="#f4536f"/><g fill="#fff"><ellipse cx="240.982" cy="266.182" rx="17.631" ry="17.609"/><ellipse cx="240.982" cy="414.491" rx="17.631" ry="17.609"/><ellipse cx="102.701" cy="266.182" rx="17.631" ry="17.609"/><ellipse cx="171.842" cy="340.337" rx="17.631" ry="17.609"/><ellipse cx="102.701" cy="414.491" rx="17.631" ry="17.609"/></g></g></g><g><path d="m236.509 496.155c-.063 0-.127 0-.189.002-53.277 1.319-133.589 1.723-216.829-3.665-9.087-140.046-1.889-273.666.008-304.248 5.431-.34 14.096-.848 25.396-1.399 4.138-.202 7.328-3.72 7.127-7.857-.202-4.138-3.709-7.332-7.857-7.127-20.232.986-32.143 1.84-32.261 1.849-3.716.268-6.672 3.223-6.941 6.94-.113 1.554-11.108 157.183-.003 319.403.256 3.739 3.233 6.715 6.972 6.971 55.496 3.79 109.953 4.976 156.38 4.976 25.633 0 48.817-.361 68.379-.846 4.142-.103 7.416-3.543 7.313-7.684-.102-4.079-3.439-7.315-7.495-7.315z"/><path d="m510.902 92.032c-.125-4.141-3.578-7.419-7.723-7.272-4.14.125-7.396 3.582-7.272 7.722 3.327 110.757-1.86 206.028-3.428 231.248-18.681 1.163-75.775 4.312-148.865 4.515-.13-45.396-1.429-96.149-4.949-147.565-.256-3.739-3.233-6.715-6.972-6.971-51.897-3.544-102.916-4.847-148.365-4.975.188-73.265 3.353-130.529 4.52-149.24 30.615-1.895 164.37-9.089 304.638-.008.792 12.196 1.487 24.754 2.071 37.42.191 4.138 3.679 7.338 7.839 7.147 4.138-.191 7.338-3.701 7.147-7.839-.694-15.053-1.545-29.954-2.527-44.29-.256-3.739-3.233-6.715-6.972-6.97-162.416-11.091-318.233-.11-319.79.002-3.716.268-6.672 3.223-6.941 6.94-.049.675-4.757 66.783-4.987 156.837-31.522.086-59.938.71-83.538 1.483-4.141.136-7.387 3.602-7.251 7.742s3.606 7.364 7.742 7.251c58.606-1.922 147.063-2.915 238.856 3.031 9.087 140.045 1.89 273.665-.008 304.247-8.794.55-26.083 1.541-49.411 2.449-4.139.161-7.364 3.647-7.203 7.787.157 4.04 3.482 7.209 7.49 7.209.099 0 .197-.002.297-.006 34.708-1.351 56.209-2.889 56.422-2.905 3.716-.268 6.672-3.223 6.941-6.94.073-1.006 4.71-66.64 4.952-156.836 89.862-.248 155.784-4.932 156.458-4.98 3.716-.268 6.673-3.223 6.941-6.94.078-1.08 7.781-109.671 3.888-239.293z"/><path d="m409.311 72.339c-13.859 0-25.133 11.265-25.133 25.111s11.274 25.112 25.133 25.112 25.133-11.265 25.133-25.112-11.274-25.111-25.133-25.111zm0 35.221c-5.586 0-10.132-4.536-10.132-10.11 0-5.575 4.545-10.11 10.132-10.11s10.132 4.535 10.132 10.11-4.546 10.11-10.132 10.11z"/><path d="m409.311 220.661c-13.859 0-25.133 11.265-25.133 25.111s11.274 25.112 25.133 25.112 25.133-11.265 25.133-25.112c0-13.846-11.274-25.111-25.133-25.111zm0 35.221c-5.586 0-10.132-4.536-10.132-10.11 0-5.575 4.545-10.11 10.132-10.11s10.132 4.535 10.132 10.11-4.546 10.11-10.132 10.11z"/><path d="m245.884 97.45c0 13.846 11.274 25.112 25.133 25.112s25.133-11.265 25.133-25.112-11.274-25.111-25.133-25.111-25.133 11.264-25.133 25.111zm35.264 0c0 5.575-4.545 10.11-10.132 10.11s-10.132-4.536-10.132-10.11c0-5.575 4.545-10.11 10.132-10.11s10.132 4.535 10.132 10.11z"/><path d="m240.959 241.094c-13.859 0-25.133 11.265-25.133 25.112 0 13.846 11.274 25.111 25.133 25.111s25.133-11.265 25.133-25.111c0-13.847-11.274-25.112-25.133-25.112zm0 35.221c-5.586 0-10.132-4.535-10.132-10.11s4.545-10.11 10.132-10.11 10.132 4.536 10.132 10.11c0 5.575-4.545 10.11-10.132 10.11z"/><path d="m240.959 389.416c-13.859 0-25.133 11.265-25.133 25.111s11.274 25.112 25.133 25.112 25.133-11.265 25.133-25.112-11.274-25.111-25.133-25.111zm0 35.222c-5.586 0-10.132-4.536-10.132-10.11s4.545-10.11 10.132-10.11 10.132 4.535 10.132 10.11-4.545 10.11-10.132 10.11z"/><path d="m102.666 291.317c13.859 0 25.133-11.265 25.133-25.111s-11.274-25.112-25.133-25.112-25.133 11.265-25.133 25.112c0 13.846 11.274 25.111 25.133 25.111zm0-35.222c5.587 0 10.132 4.536 10.132 10.11 0 5.575-4.545 10.11-10.132 10.11s-10.132-4.535-10.132-10.11c0-5.574 4.545-10.11 10.132-10.11z"/><path d="m146.68 340.366c0 13.846 11.274 25.112 25.133 25.112s25.133-11.265 25.133-25.112-11.274-25.111-25.133-25.111-25.133 11.265-25.133 25.111zm25.132-10.11c5.586 0 10.132 4.535 10.132 10.11s-4.545 10.11-10.132 10.11-10.131-4.536-10.131-10.11c0-5.575 4.545-10.11 10.131-10.11z"/><path d="m102.666 439.639c13.859 0 25.133-11.265 25.133-25.112s-11.274-25.111-25.133-25.111-25.133 11.265-25.133 25.111 11.274 25.112 25.133 25.112zm0-35.222c5.587 0 10.132 4.535 10.132 10.11s-4.545 10.11-10.132 10.11-10.132-4.536-10.132-10.11 4.545-10.11 10.132-10.11z"/><path d="m179.313 225.353c0-4.143-3.358-7.501-7.501-7.501s-7.501 3.358-7.501 7.501 3.358 7.501 7.501 7.501 7.501-3.358 7.501-7.501z"/><path d="m164.311 455.373c0 4.143 3.358 7.501 7.501 7.501s7.501-3.358 7.501-7.501-3.358-7.501-7.501-7.501c-4.142 0-7.501 3.358-7.501 7.501z"/><path d="m281.962 347.864c4.143 0 7.501-3.358 7.501-7.501s-3.358-7.501-7.501-7.501-7.501 3.358-7.501 7.501c-.001 4.143 3.358 7.501 7.501 7.501z"/><path d="m61.672 347.868c4.143 0 7.501-3.358 7.501-7.501s-3.358-7.501-7.501-7.501-7.501 3.358-7.501 7.501 3.359 7.501 7.501 7.501z"/><path d="m332.665 56.447c0 4.143 3.358 7.501 7.501 7.501s7.501-3.358 7.501-7.501-3.358-7.501-7.501-7.501-7.501 3.358-7.501 7.501z"/><path d="m442.814 171.458c0 4.143 3.358 7.501 7.501 7.501s7.501-3.358 7.501-7.501-3.358-7.501-7.501-7.501c-4.142 0-7.501 3.358-7.501 7.501z"/></g></g></svg>