<svg id="Capa_1" enable-background="new 0 0 512 512" height="512" viewBox="0 0 512 512" width="512" xmlns="http://www.w3.org/2000/svg"><g><g><g><g><g><path d="m55 0c-30.376 0-55 24.624-55 55v80c0 8.284 6.716 15 15 15h226v-135c0-8.284-6.716-15-15-15z" fill="#bceaf9"/><path d="m512 55c0-30.376-24.624-55-55-55h-231v150h271c8.284 0 15-6.716 15-15z" fill="#ff5e93"/><path d="m457 0h-201v150h241c8.284 0 15-6.716 15-15v-80c0-30.376-24.624-55-55-55z" fill="#b7457d"/></g></g></g><g><g><path d="m106 82.5h-30c-8.284 0-15-6.716-15-15s6.716-15 15-15h30c8.284 0 15 6.716 15 15s-6.716 15-15 15z" fill="#f1f1f4"/></g><g><circle cx="166" cy="67.5" fill="#f1f1f4" r="15"/></g></g><path d="m0 135v322c0 30.327 24.673 55 55 55h402c30.327 0 55-24.673 55-55v-322z" fill="#f1f1f4"/><path d="m256 512h201c30.327 0 55-24.673 55-55v-322h-256z" fill="#e2dff4"/></g><g><g><g><g><g><g><g><g><g><path d="m329.705 388.5c-39.977 0-72.5-32.523-72.5-72.5s32.523-72.5 72.5-72.5c14.526 0 28.547 4.284 40.544 12.389 5.721 3.865 7.226 11.635 3.361 17.355-3.866 5.719-11.637 7.225-17.355 3.36-7.85-5.302-17.03-8.105-26.55-8.105-26.191 0-47.5 21.309-47.5 47.5s21.309 47.5 47.5 47.5c23.574 0 34.786-16.905 38.158-35h-22.261c-6.903 0-12.5-5.597-12.5-12.5s5.597-12.5 12.5-12.5h35.898c6.903 0 12.5 5.597 12.5 12.5 0 42.688-26.439 72.501-64.295 72.501z" fill="#323c3c"/></g></g><g><g><path d="m187.649 388.5c-24.208.001-44.826-17.84-48.181-41.875-.311-2.228-.469-4.505-.469-6.769 0-6.903 5.597-12.5 12.5-12.5 6.904 0 12.5 5.597 12.5 12.5 0 1.112.077 2.226.229 3.313 1.651 11.83 11.947 20.596 23.911 20.327 12.325-.249 22.479-10.072 23.117-22.365.341-6.565-1.955-12.797-6.465-17.547-4.514-4.754-10.603-7.372-17.146-7.372-9.346 0-13.17 1.407-17.938 3.553-.533.24-.87.405-.969.455-4.202 2.172-9.248 1.774-13.071-1.007-3.825-2.783-5.729-7.497-4.956-12.163l8.796-53.091c1-6.033 6.217-10.457 12.332-10.457h44.402c6.903 0 12.5 5.597 12.5 12.5s-5.597 12.5-12.5 12.5h-33.802l-3.833 23.13c2.705-.276 5.678-.42 9.038-.42 13.272 0 26.129 5.525 35.276 15.159 9.278 9.771 14.002 22.577 13.302 36.057-1.314 25.319-22.214 45.553-47.58 46.064-.33.005-.663.008-.993.008z" fill="#485959"/></g></g></g></g></g></g></g></g></g></g></svg>